<svg version="1.0" xmlns="http://www.w3.org/2000/svg"
 width="300.000000pt" height="300.000000pt" viewBox="0 0 300.000000 300.000000"
 preserveAspectRatio="xMidYMid meet">

	<g transform="translate(0.000000,300.000000) scale(0.100000,-0.100000)"
	fill="#000000" stroke="none">
		<path d="M1981 2899 c-40 -64 -47 -70 -70 -65 -14 3 -71 15 -126 28 -134 30
-415 33 -545 5 -304 -65 -547 -200 -753 -417 -51 -55 -100 -100 -108 -100 -8
0 -45 14 -83 30 -38 16 -70 29 -71 27 -1 -1 -45 -87 -99 -191 -74 -144 -94
-191 -84 -198 7 -5 39 -24 70 -44 32 -19 58 -39 58 -44 0 -5 -12 -62 -27 -127
-24 -104 -27 -139 -27 -298 -1 -153 3 -196 22 -284 46 -204 125 -385 238 -541
52 -72 191 -217 256 -267 l27 -20 -33 -84 -34 -83 189 -98 c104 -54 191 -98
193 -98 2 0 24 32 48 71 38 62 46 70 68 65 14 -3 70 -15 125 -28 135 -30 425
-33 554 -4 314 68 603 236 785 454 l58 70 81 -34 c44 -19 81 -33 82 -32 7 8
195 376 195 380 0 3 -31 25 -70 48 -38 23 -70 44 -70 45 0 2 12 57 27 122 24
106 27 138 28 308 0 148 -4 209 -19 275 -68 312 -226 586 -448 776 -38 32 -68
63 -68 70 0 6 14 44 30 84 17 40 29 74 28 75 -8 6 -377 195 -380 195 -2 0 -23
-32 -47 -71z m-304 -290 c43 -6 83 -14 90 -17 8 -5 -14 -47 -66 -131 l-78
-124 -124 -2 c-193 -4 -326 -47 -477 -152 -46 -32 -87 -53 -103 -53 -27 0
-235 82 -253 100 -14 14 125 145 220 206 229 150 513 212 791 173z m649 -351
c190 -206 294 -477 294 -765 0 -100 -15 -235 -29 -259 -4 -8 -51 17 -131 67
l-124 79 3 73 c7 183 -40 352 -143 506 -37 56 -66 110 -66 124 0 14 16 63 36
109 19 45 42 98 50 116 l14 34 28 -21 c16 -11 46 -39 68 -63z m-804 -318 c4
-63 11 -170 15 -238 l8 -123 198 126 c109 69 203 123 208 119 5 -3 23 -32 39
-65 30 -58 53 -141 64 -230 l5 -47 -167 -7 c-92 -3 -199 -9 -239 -13 l-72 -7
125 -197 c69 -109 122 -202 119 -208 -22 -36 -193 -95 -295 -102 l-45 -3 -8
165 c-4 91 -11 197 -15 237 l-7 72 -197 -125 c-109 -69 -202 -122 -208 -119
-35 22 -100 217 -100 302 l0 43 38 0 c62 0 426 20 429 24 2 2 -53 92 -123 201
-143 226 -141 204 -29 255 53 25 116 42 195 54 55 8 55 8 62 -114z m-964 -252
l112 -70 0 -117 c0 -195 32 -299 140 -467 52 -79 69 -113 64 -128 -17 -54
-100 -246 -107 -246 -4 0 -36 28 -70 63 -200 200 -317 490 -317 786 0 87 12
197 26 244 8 24 16 21 152 -65z m1663 -865 c66 -27 119 -52 119 -56 0 -15 -94
-108 -164 -161 -191 -146 -433 -226 -683 -226 -109 0 -242 16 -257 30 -5 5 23
60 68 132 l77 123 119 2 c199 3 334 47 489 157 36 25 76 46 89 46 14 0 78 -21
143 -47z"/>
	</g>
</svg>
